<svg width="35" height="35" viewBox="0 0 35 35" fill="none" xmlns="http://www.w3.org/2000/svg">
<path d="M17.8211 2.91666H17.1794C16.4059 2.91666 15.664 3.22395 15.117 3.77093C14.57 4.31791 14.2627 5.05977 14.2627 5.83332V6.09582C14.2622 6.6073 14.1272 7.10964 13.8712 7.55246C13.6153 7.99528 13.2474 8.363 12.8044 8.61874L12.1773 8.98332C11.7339 9.23931 11.231 9.37408 10.719 9.37408C10.207 9.37408 9.70405 9.23931 9.26066 8.98332L9.04191 8.86666C8.37263 8.48058 7.57751 8.37585 6.83108 8.57544C6.08466 8.77503 5.44793 9.26265 5.06066 9.93124L4.73983 10.4854C4.35376 11.1547 4.24902 11.9498 4.44861 12.6962C4.64821 13.4427 5.13582 14.0794 5.80441 14.4667L6.02316 14.6125C6.46398 14.867 6.83053 15.2324 7.08636 15.6725C7.3422 16.1125 7.47842 16.6118 7.4815 17.1208V17.8646C7.48354 18.3785 7.34974 18.8839 7.09364 19.3295C6.83755 19.7751 6.46826 20.1451 6.02316 20.4021L5.80441 20.5333C5.13582 20.9206 4.64821 21.5573 4.44861 22.3037C4.24902 23.0502 4.35376 23.8453 4.73983 24.5146L5.06066 25.0687C5.44793 25.7373 6.08466 26.2249 6.83108 26.4245C7.57751 26.6241 8.37263 26.5194 9.04191 26.1333L9.26066 26.0167C9.70405 25.7607 10.207 25.6259 10.719 25.6259C11.231 25.6259 11.7339 25.7607 12.1773 26.0167L12.8044 26.3812C13.2474 26.637 13.6153 27.0047 13.8712 27.4475C14.1272 27.8903 14.2622 28.3927 14.2627 28.9042V29.1667C14.2627 29.9402 14.57 30.6821 15.117 31.229C15.664 31.776 16.4059 32.0833 17.1794 32.0833H17.8211C18.5946 32.0833 19.3365 31.776 19.8835 31.229C20.4305 30.6821 20.7377 29.9402 20.7377 29.1667V28.9042C20.7383 28.3927 20.8733 27.8903 21.1293 27.4475C21.3852 27.0047 21.7531 26.637 22.1961 26.3812L22.8232 26.0167C23.2666 25.7607 23.7695 25.6259 24.2815 25.6259C24.7935 25.6259 25.2964 25.7607 25.7398 26.0167L25.9586 26.1333C26.6279 26.5194 27.423 26.6241 28.1694 26.4245C28.9158 26.2249 29.5526 25.7373 29.9398 25.0687L30.2607 24.5C30.6467 23.8307 30.7515 23.0356 30.5519 22.2892C30.3523 21.5427 29.8647 20.906 29.1961 20.5187L28.9773 20.4021C28.5322 20.1451 28.1629 19.7751 27.9068 19.3295C27.6508 18.8839 27.517 18.3785 27.519 17.8646V17.1354C27.517 16.6215 27.6508 16.1161 27.9068 15.6705C28.1629 15.2249 28.5322 14.8549 28.9773 14.5979L29.1961 14.4667C29.8647 14.0794 30.3523 13.4427 30.5519 12.6962C30.7515 11.9498 30.6467 11.1547 30.2607 10.4854L29.9398 9.93124C29.5526 9.26265 28.9158 8.77503 28.1694 8.57544C27.423 8.37585 26.6279 8.48058 25.9586 8.86666L25.7398 8.98332C25.2964 9.23931 24.7935 9.37408 24.2815 9.37408C23.7695 9.37408 23.2666 9.23931 22.8232 8.98332L22.1961 8.61874C21.7531 8.363 21.3852 7.99528 21.1293 7.55246C20.8733 7.10964 20.7383 6.6073 20.7377 6.09582V5.83332C20.7377 5.05977 20.4305 4.31791 19.8835 3.77093C19.3365 3.22395 18.5946 2.91666 17.8211 2.91666Z" stroke="#FBFBFB" stroke-width="0.75" stroke-linecap="round" stroke-linejoin="round"/>
<path d="M17.5 21.875C19.9162 21.875 21.875 19.9162 21.875 17.5C21.875 15.0838 19.9162 13.125 17.5 13.125C15.0838 13.125 13.125 15.0838 13.125 17.5C13.125 19.9162 15.0838 21.875 17.5 21.875Z" stroke="#FBFBFB" stroke-width="0.75" stroke-linecap="round" stroke-linejoin="round"/>
</svg>
