<svg width="34" height="35" viewBox="0 0 34 35" fill="none" xmlns="http://www.w3.org/2000/svg">
<path d="M12.75 4.375H5.66667C4.88426 4.375 4.25 5.02792 4.25 5.83333V16.0417C4.25 16.8471 4.88426 17.5 5.66667 17.5H12.75C13.5324 17.5 14.1667 16.8471 14.1667 16.0417V5.83333C14.1667 5.02792 13.5324 4.375 12.75 4.375Z" stroke="#FBFBFB" stroke-width="0.75" stroke-linecap="round" stroke-linejoin="round"/>
<path d="M28.333 4.375H21.2497C20.4673 4.375 19.833 5.02792 19.833 5.83333V10.2083C19.833 11.0137 20.4673 11.6667 21.2497 11.6667H28.333C29.1154 11.6667 29.7497 11.0137 29.7497 10.2083V5.83333C29.7497 5.02792 29.1154 4.375 28.333 4.375Z" stroke="#FBFBFB" stroke-width="0.75" stroke-linecap="round" stroke-linejoin="round"/>
<path d="M28.333 17.5H21.2497C20.4673 17.5 19.833 18.1529 19.833 18.9583V29.1667C19.833 29.9721 20.4673 30.625 21.2497 30.625H28.333C29.1154 30.625 29.7497 29.9721 29.7497 29.1667V18.9583C29.7497 18.1529 29.1154 17.5 28.333 17.5Z" stroke="#FBFBFB" stroke-width="0.75" stroke-linecap="round" stroke-linejoin="round"/>
<path d="M12.75 23.3333H5.66667C4.88426 23.3333 4.25 23.9862 4.25 24.7917V29.1667C4.25 29.9721 4.88426 30.625 5.66667 30.625H12.75C13.5324 30.625 14.1667 29.9721 14.1667 29.1667V24.7917C14.1667 23.9862 13.5324 23.3333 12.75 23.3333Z" stroke="#FBFBFB" stroke-width="0.75" stroke-linecap="round" stroke-linejoin="round"/>
</svg>
