<svg width="36" height="36" viewBox="0 0 36 36" fill="none" xmlns="http://www.w3.org/2000/svg">
<path d="M30 10.5H25.5C24.7044 10.5 23.9413 10.1839 23.3787 9.62132C22.8161 9.05871 22.5 8.29565 22.5 7.5V3" stroke="#FBFBFB" stroke-width="0.75" stroke-linecap="round" stroke-linejoin="round"/>
<path d="M13.5 27C12.7044 27 11.9413 26.6839 11.3787 26.1213C10.8161 25.5587 10.5 24.7956 10.5 24V6C10.5 5.20435 10.8161 4.44129 11.3787 3.87868C11.9413 3.31607 12.7044 3 13.5 3H24L30 9V24C30 24.7956 29.6839 25.5587 29.1213 26.1213C28.5587 26.6839 27.7956 27 27 27H13.5Z" stroke="#FBFBFB" stroke-width="0.75" stroke-linecap="round" stroke-linejoin="round"/>
<path d="M4.5 11.4V30.6C4.5 31.2365 4.75286 31.847 5.20294 32.297C5.65303 32.7471 6.26348 33 6.9 33H21.6" stroke="#FBFBFB" stroke-width="0.75" stroke-linecap="round" stroke-linejoin="round"/>
</svg>
