<svg width="36" height="36" viewBox="0 0 36 36" fill="none" xmlns="http://www.w3.org/2000/svg">
<path d="M3.09278 18.522C2.96777 18.1852 2.96777 17.8148 3.09278 17.478C4.31033 14.5258 6.37705 12.0016 9.03094 10.2253C11.6848 8.44913 14.8063 7.50092 17.9998 7.50092C21.1932 7.50092 24.3147 8.44913 26.9686 10.2253C29.6225 12.0016 31.6892 14.5258 32.9068 17.478C33.0318 17.8148 33.0318 18.1852 32.9068 18.522C31.6892 21.4742 29.6225 23.9984 26.9686 25.7746C24.3147 27.5509 21.1932 28.4991 17.9998 28.4991C14.8063 28.4991 11.6848 27.5509 9.03094 25.7746C6.37705 23.9984 4.31033 21.4742 3.09278 18.522Z" stroke="black" stroke-width="1.125" stroke-linecap="round" stroke-linejoin="round"/>
<path d="M18 22.5C20.4853 22.5 22.5 20.4853 22.5 18C22.5 15.5147 20.4853 13.5 18 13.5C15.5147 13.5 13.5 15.5147 13.5 18C13.5 20.4853 15.5147 22.5 18 22.5Z" stroke="black" stroke-width="1.125" stroke-linecap="round" stroke-linejoin="round"/>
</svg>
