<svg width="36" height="36" viewBox="0 0 36 36" fill="none" xmlns="http://www.w3.org/2000/svg">
<path d="M16.0996 7.61399C19.5937 7.19759 23.128 7.93621 26.1629 9.71706C29.1978 11.4979 31.5664 14.2231 32.9071 17.4765C33.0321 17.8133 33.0321 18.1837 32.9071 18.5205C32.3559 19.857 31.6273 21.1132 30.7411 22.2555" stroke="black" stroke-width="1.125" stroke-linecap="round" stroke-linejoin="round"/>
<path d="M21.1262 21.237C20.2775 22.0567 19.1408 22.5103 17.9609 22.5C16.781 22.4898 15.6524 22.0165 14.818 21.1822C13.9837 20.3478 13.5104 19.2192 13.5002 18.0393C13.4899 16.8594 13.9435 15.7227 14.7632 14.874" stroke="black" stroke-width="1.125" stroke-linecap="round" stroke-linejoin="round"/>
<path d="M26.2183 26.2485C24.2285 27.4272 22.0085 28.164 19.7088 28.4091C17.4092 28.6541 15.0837 28.4017 12.8902 27.6688C10.6967 26.9359 8.68657 25.7398 6.9961 24.1616C5.30563 22.5834 3.97441 20.66 3.09278 18.522C2.96777 18.1852 2.96777 17.8148 3.09278 17.478C4.42273 14.2528 6.76279 11.5459 9.76178 9.76349" stroke="black" stroke-width="1.125" stroke-linecap="round" stroke-linejoin="round"/>
<path d="M3 3L33 33" stroke="black" stroke-width="1.125" stroke-linecap="round" stroke-linejoin="round"/>
</svg>
