<svg width="32" height="32" viewBox="0 0 32 32" fill="none" xmlns="http://www.w3.org/2000/svg">
<path d="M13.3332 26.6667C13.3331 26.9144 13.402 27.1573 13.5322 27.3681C13.6625 27.5789 13.8489 27.7492 14.0705 27.86L16.7372 29.1933C16.9405 29.2949 17.1664 29.3429 17.3935 29.3326C17.6206 29.3223 17.8412 29.2541 18.0346 29.1346C18.2279 29.015 18.3874 28.848 18.498 28.6494C18.6086 28.4509 18.6666 28.2273 18.6665 28V18.6667C18.6668 18.0058 18.9125 17.3687 19.3558 16.8787L28.9865 6.22667C29.1591 6.03541 29.2726 5.79824 29.3133 5.54384C29.354 5.28945 29.3201 5.02871 29.2157 4.79317C29.1113 4.55762 28.941 4.35736 28.7252 4.2166C28.5094 4.07584 28.2575 4.00061 27.9998 4H3.99984C3.74199 4.00009 3.48969 4.07495 3.27351 4.21552C3.05733 4.35608 2.88655 4.55631 2.78185 4.79195C2.67715 5.0276 2.64303 5.28854 2.68361 5.54319C2.7242 5.79783 2.83775 6.03524 3.01051 6.22667L12.6438 16.8787C13.0872 17.3687 13.3329 18.0058 13.3332 18.6667V26.6667Z" stroke="black" stroke-width="1.125" stroke-linecap="round" stroke-linejoin="round"/>
</svg>
