<svg width="36" height="36" viewBox="0 0 36 36" fill="none" xmlns="http://www.w3.org/2000/svg">
<path d="M27 4.5H22.5C21.6716 4.5 21 5.17157 21 6V30C21 30.8284 21.6716 31.5 22.5 31.5H27C27.8284 31.5 28.5 30.8284 28.5 30V6C28.5 5.17157 27.8284 4.5 27 4.5Z" stroke="black" stroke-width="1.125" stroke-linecap="round" stroke-linejoin="round"/>
<path d="M13.5 4.5H9C8.17157 4.5 7.5 5.17157 7.5 6V30C7.5 30.8284 8.17157 31.5 9 31.5H13.5C14.3284 31.5 15 30.8284 15 30V6C15 5.17157 14.3284 4.5 13.5 4.5Z" stroke="black" stroke-width="1.125" stroke-linecap="round" stroke-linejoin="round"/>
</svg>
