<svg width="36" height="36" viewBox="0 0 36 36" fill="none" xmlns="http://www.w3.org/2000/svg">
<path d="M15.0435 6.42753C14.5883 6.15438 14.0687 6.00694 13.5378 6.00024C13.007 5.99354 12.4839 6.12783 12.0219 6.3894C11.5599 6.65098 11.1756 7.03046 10.9082 7.4891C10.6409 7.94775 10.5 8.46914 10.5 9.00003V27C10.5 27.5309 10.6409 28.0523 10.9082 28.511C11.1756 28.9696 11.5599 29.3491 12.0219 29.6107C12.4839 29.8722 13.007 30.0065 13.5378 29.9998C14.0687 29.9931 14.5883 29.8457 15.0435 29.5725L30.039 20.5755C30.4842 20.3096 30.8528 19.9327 31.1089 19.4818C31.365 19.0309 31.4998 18.5214 31.5003 18.0028C31.5008 17.4842 31.3668 16.9744 31.1115 16.5231C30.8561 16.0717 30.4882 15.6943 30.0435 15.4275L15.0435 6.42753Z" stroke="black" stroke-width="1.125" stroke-linecap="round" stroke-linejoin="round"/>
<path d="M4.5 6V30" stroke="black" stroke-width="1.125" stroke-linecap="round" stroke-linejoin="round"/>
</svg>
