<svg width="36" height="36" viewBox="0 0 36 36" fill="none" xmlns="http://www.w3.org/2000/svg">
<path d="M21 3V9C21 9.79565 21.3161 10.5587 21.8787 11.1213C22.4413 11.6839 23.2044 12 24 12H30" stroke="#FBFBFB" stroke-width="1.125" stroke-linecap="round" stroke-linejoin="round"/>
<path d="M24 33H27C27.7956 33 28.5587 32.6839 29.1213 32.1213C29.6839 31.5587 30 30.7956 30 30V10.5L22.5 3H9C8.20435 3 7.44129 3.31607 6.87868 3.87868C6.31607 4.44129 6 5.20435 6 6V10.5" stroke="#FBFBFB" stroke-width="1.125" stroke-linecap="round" stroke-linejoin="round"/>
<path d="M12 21V24.3L14.4 25.8" stroke="#FBFBFB" stroke-width="1.125" stroke-linecap="round" stroke-linejoin="round"/>
<path d="M12 33C16.9706 33 21 28.9706 21 24C21 19.0294 16.9706 15 12 15C7.02944 15 3 19.0294 3 24C3 28.9706 7.02944 33 12 33Z" stroke="#FBFBFB" stroke-width="1.125" stroke-linecap="round" stroke-linejoin="round"/>
</svg>
